<svg width="61" height="60" viewBox="0 0 61 60" fill="none" xmlns="http://www.w3.org/2000/svg">
<g clip-path="url(#clip0_8_595)">
<path d="M30.5 60C38.4565 60 46.0871 56.8393 51.7132 51.2132C57.3393 45.5871 60.5 37.9565 60.5 30C60.5 22.0435 57.3393 14.4129 51.7132 8.7868C46.0871 3.16071 38.4565 0 30.5 0C22.5435 0 14.9129 3.16071 9.2868 8.7868C3.66071 14.4129 0.5 22.0435 0.5 30C0.5 37.9565 3.66071 45.5871 9.2868 51.2132C14.9129 56.8393 22.5435 60 30.5 60ZM27.6875 40.3125V32.8125H20.1875C18.6289 32.8125 17.375 31.5586 17.375 30C17.375 28.4414 18.6289 27.1875 20.1875 27.1875H27.6875V19.6875C27.6875 18.1289 28.9414 16.875 30.5 16.875C32.0586 16.875 33.3125 18.1289 33.3125 19.6875V27.1875H40.8125C42.3711 27.1875 43.625 28.4414 43.625 30C43.625 31.5586 42.3711 32.8125 40.8125 32.8125H33.3125V40.3125C33.3125 41.8711 32.0586 43.125 30.5 43.125C28.9414 43.125 27.6875 41.8711 27.6875 40.3125Z" fill="#CCCCCC"/>
</g>
<defs>
<clipPath id="clip0_8_595">
<rect width="60" height="60" fill="white" transform="translate(0.5)"/>
</clipPath>
</defs>
</svg>
