<svg width="100" height="100" viewBox="0 0 100 100" fill="none" xmlns="http://www.w3.org/2000/svg">
<path d="M50 0C22.3858 0 0 22.3858 0 50C0 77.6142 22.3858 100 50 100C77.6142 100 100 77.6142 100 50C100 36.7392 94.7322 24.0215 85.3553 14.6447C75.9785 5.26784 63.2608 0 50 0ZM71.75 38.65L43.65 66.75C43.1963 67.2334 42.5629 67.5076 41.9 67.5076C41.2371 67.5076 40.6037 67.2334 40.15 66.75L28.25 55C27.7767 54.5306 27.5105 53.8916 27.5105 53.225C27.5105 52.5584 27.7767 51.9194 28.25 51.45L30.9 48.8C31.3537 48.3166 31.9871 48.0424 32.65 48.0424C33.3129 48.0424 33.9463 48.3166 34.4 48.8L41.9 56.25L65.6 32.55C66.5721 31.5971 68.1279 31.5971 69.1 32.55L71.75 35.2C72.6706 36.1657 72.6706 37.6843 71.75 38.65Z" fill="#59C28A"/>
</svg>
