<svg width="20" height="20" viewBox="0 0 20 20" fill="none" xmlns="http://www.w3.org/2000/svg">
<path d="M3.32132 17.6593L7.74074 16.7754C7.90206 16.7431 8.05023 16.6638 8.16657 16.5475L13.7081 11.0059C14.0335 10.6805 14.0335 10.1529 13.7081 9.82742L10.1725 6.29189C9.84709 5.96645 9.31945 5.96645 8.99401 6.29189L3.45252 11.8334C3.33619 11.9498 3.25689 12.0979 3.22463 12.2593L2.34074 16.6787C2.22412 17.2618 2.73822 17.7759 3.32132 17.6593Z" fill="#6F767E"/>
<path d="M16.827 4.35151L15.6485 3.173C14.6722 2.19669 13.0893 2.19669 12.113 3.173L11.2919 3.99407C10.9664 4.31951 10.9664 4.84714 11.2919 5.17258L14.8274 8.70812C15.1528 9.03355 15.6805 9.03355 16.0059 8.70812L16.827 7.88704C17.8033 6.91073 17.8033 5.32782 16.827 4.35151Z" fill="#6F767E"/>
</svg>
