<svg width="22" height="22" viewBox="0 0 22 22" fill="none" xmlns="http://www.w3.org/2000/svg">
<g clip-path="url(#clip0_1_1085)">
<path d="M7.07266 7.54102L11.1977 0.666016C11.4426 0.253516 11.8938 0 12.375 0C12.8562 0 13.3074 0.253516 13.5523 0.666016L17.6773 7.54102C17.9309 7.96641 17.9395 8.49492 17.6945 8.92461C17.4496 9.3543 16.9941 9.6207 16.5 9.6207H8.25C7.75586 9.6207 7.29609 9.3543 7.05547 8.92461C6.81484 8.49492 6.81914 7.96641 7.07266 7.54102ZM12.375 2.71133L9.46602 7.5625H15.284L12.375 2.71133ZM19.9375 13.75H14.4375V19.25H19.9375V13.75ZM14.0938 11.6875H20.2812C21.2309 11.6875 22 12.4566 22 13.4062V19.5938C22 20.5434 21.2309 21.3125 20.2812 21.3125H14.0938C13.1441 21.3125 12.375 20.5434 12.375 19.5938V13.4062C12.375 12.4566 13.1441 11.6875 14.0938 11.6875ZM8.9375 16.5C8.9375 15.5883 8.57534 14.714 7.93068 14.0693C7.28602 13.4247 6.41168 13.0625 5.5 13.0625C4.58832 13.0625 3.71398 13.4247 3.06932 14.0693C2.42466 14.714 2.0625 15.5883 2.0625 16.5C2.0625 17.4117 2.42466 18.286 3.06932 18.9307C3.71398 19.5753 4.58832 19.9375 5.5 19.9375C6.41168 19.9375 7.28602 19.5753 7.93068 18.9307C8.57534 18.286 8.9375 17.4117 8.9375 16.5ZM0 16.5C0 15.0413 0.579463 13.6424 1.61091 12.6109C2.64236 11.5795 4.04131 11 5.5 11C6.95869 11 8.35764 11.5795 9.38909 12.6109C10.4205 13.6424 11 15.0413 11 16.5C11 17.9587 10.4205 19.3576 9.38909 20.3891C8.35764 21.4205 6.95869 22 5.5 22C4.04131 22 2.64236 21.4205 1.61091 20.3891C0.579463 19.3576 0 17.9587 0 16.5Z" fill="#696974"/>
</g>
<defs>
<clipPath id="clip0_1_1085">
<rect width="22" height="22" fill="white"/>
</clipPath>
</defs>
</svg>
