<svg width="36" height="36" viewBox="0 0 36 36" fill="none" xmlns="http://www.w3.org/2000/svg">
<path fill-rule="evenodd" clip-rule="evenodd" d="M17.3861 22.6061L16.4203 21.8631L16.4203 23.5298C16.4196 23.5405 16.4261 23.5558 16.4483 23.5761C16.5153 23.6372 16.6389 23.653 16.734 23.6194L17.3861 22.6061ZM18.5074 23.4688L17.8676 24.4629C17.8272 24.5258 17.7763 24.5819 17.717 24.6292C17.0665 25.148 16.0728 25.1196 15.4611 24.5615C15.1393 24.2679 14.9671 23.8631 14.9931 23.4876L14.9919 20.8644L11.8494 18.4254C11.5395 18.1849 11.3005 17.8715 11.1561 17.5162C10.6964 16.3851 11.2864 15.1135 12.4729 14.6761L25.0238 10.0493C25.2668 9.95974 25.496 9.99922 25.671 10.1111C25.8886 10.2441 26.0163 10.4822 25.9983 10.7313C25.9952 10.7789 25.9866 10.8267 25.9719 10.874L22.5495 22.6407C22.2118 23.8018 20.9458 24.482 19.7223 24.1649C19.4141 24.085 19.1267 23.9452 18.8785 23.7543L18.5074 23.4688ZM16.7961 20.4012L19.7749 22.6928C19.8692 22.7654 19.9788 22.8187 20.0966 22.8492C20.5645 22.9705 21.0461 22.7117 21.1729 22.2761L23.815 13.1921L16.7961 20.4012ZM15.628 19.6L22.6543 12.3855L12.9879 15.9479C12.5374 16.1139 12.314 16.5952 12.4879 17.0231C12.5426 17.1576 12.6332 17.2763 12.7508 17.3676L15.628 19.6Z" fill="#696974" stroke="#696974" stroke-width="0.5"/>
</svg>
