<svg width="22" height="22" viewBox="0 0 22 22" fill="none" xmlns="http://www.w3.org/2000/svg">
<g clip-path="url(#clip0_1_1095)">
<path d="M19.9375 11C19.9375 8.62963 18.9959 6.35634 17.3198 4.68023C15.6437 3.00413 13.3704 2.0625 11 2.0625C8.62963 2.0625 6.35634 3.00413 4.68023 4.68023C3.00413 6.35634 2.0625 8.62963 2.0625 11C2.0625 13.3704 3.00413 15.6437 4.68023 17.3198C6.35634 18.9959 8.62963 19.9375 11 19.9375C13.3704 19.9375 15.6437 18.9959 17.3198 17.3198C18.9959 15.6437 19.9375 13.3704 19.9375 11ZM0 11C0 8.08262 1.15893 5.28473 3.22183 3.22183C5.28473 1.15893 8.08262 0 11 0C13.9174 0 16.7153 1.15893 18.7782 3.22183C20.8411 5.28473 22 8.08262 22 11C22 13.9174 20.8411 16.7153 18.7782 18.7782C16.7153 20.8411 13.9174 22 11 22C8.08262 22 5.28473 20.8411 3.22183 18.7782C1.15893 16.7153 0 13.9174 0 11ZM7.63125 13.6684C8.28438 14.373 9.40156 15.125 11 15.125C12.5984 15.125 13.7156 14.373 14.3687 13.6684C14.7555 13.2516 15.4086 13.2215 15.8254 13.6082C16.2422 13.9949 16.2723 14.648 15.8855 15.0648C14.9402 16.0875 13.3074 17.1875 11.0043 17.1875C8.70117 17.1875 7.06406 16.0918 6.12305 15.0648C5.73633 14.648 5.76211 13.9949 6.1832 13.6082C6.6043 13.2215 7.25313 13.2473 7.63984 13.6684H7.63125ZM6.20469 8.9375C6.20469 8.57283 6.34955 8.22309 6.60742 7.96523C6.86528 7.70737 7.21501 7.5625 7.57969 7.5625C7.94436 7.5625 8.2941 7.70737 8.55196 7.96523C8.80982 8.22309 8.95469 8.57283 8.95469 8.9375C8.95469 9.30217 8.80982 9.65191 8.55196 9.90977C8.2941 10.1676 7.94436 10.3125 7.57969 10.3125C7.21501 10.3125 6.86528 10.1676 6.60742 9.90977C6.34955 9.65191 6.20469 9.30217 6.20469 8.9375ZM14.4547 7.5625C14.8194 7.5625 15.1691 7.70737 15.427 7.96523C15.6848 8.22309 15.8297 8.57283 15.8297 8.9375C15.8297 9.30217 15.6848 9.65191 15.427 9.90977C15.1691 10.1676 14.8194 10.3125 14.4547 10.3125C14.09 10.3125 13.7403 10.1676 13.4824 9.90977C13.2246 9.65191 13.0797 9.30217 13.0797 8.9375C13.0797 8.57283 13.2246 8.22309 13.4824 7.96523C13.7403 7.70737 14.09 7.5625 14.4547 7.5625Z" fill="black"/>
</g>
<defs>
<clipPath id="clip0_1_1095">
<rect width="22" height="22" fill="white"/>
</clipPath>
</defs>
</svg>
