<svg width="22" height="22" viewBox="0 0 22 22" fill="none" xmlns="http://www.w3.org/2000/svg">
<g clip-path="url(#clip0_1_1088)">
<path d="M19.9375 11C19.9375 8.62963 18.9959 6.35634 17.3198 4.68023C15.6437 3.00413 13.3704 2.0625 11 2.0625C8.62963 2.0625 6.35634 3.00413 4.68023 4.68023C3.00413 6.35634 2.0625 8.62963 2.0625 11C2.0625 13.3704 3.00413 15.6437 4.68023 17.3198C6.35634 18.9959 8.62963 19.9375 11 19.9375C13.3704 19.9375 15.6437 18.9959 17.3198 17.3198C18.9959 15.6437 19.9375 13.3704 19.9375 11ZM0 11C0 8.08262 1.15893 5.28473 3.22183 3.22183C5.28473 1.15893 8.08262 0 11 0C13.9174 0 16.7153 1.15893 18.7782 3.22183C20.8411 5.28473 22 8.08262 22 11C22 13.9174 20.8411 16.7153 18.7782 18.7782C16.7153 20.8411 13.9174 22 11 22C8.08262 22 5.28473 20.8411 3.22183 18.7782C1.15893 16.7153 0 13.9174 0 11ZM6.8707 6.45391C7.2918 6.07148 7.94492 6.10156 8.32734 6.52266L11 9.46602L13.6727 6.52266C14.0551 6.10156 14.7082 6.07148 15.1293 6.45391C15.5504 6.83633 15.5805 7.48945 15.198 7.91055L12.3922 11H13.75C14.1281 11 14.4375 11.3094 14.4375 11.6875C14.4375 12.0656 14.1281 12.375 13.75 12.375H12.0312V13.75H13.75C14.1281 13.75 14.4375 14.0594 14.4375 14.4375C14.4375 14.8156 14.1281 15.125 13.75 15.125H12.0312V16.1992C12.0312 16.7707 11.5715 17.2305 11 17.2305C10.4285 17.2305 9.96875 16.7707 9.96875 16.1992V15.125H8.25C7.87187 15.125 7.5625 14.8156 7.5625 14.4375C7.5625 14.0594 7.87187 13.75 8.25 13.75H9.96875V12.375H8.25C7.87187 12.375 7.5625 12.0656 7.5625 11.6875C7.5625 11.3094 7.87187 11 8.25 11H9.60781L6.80195 7.91055C6.41953 7.48945 6.44961 6.83633 6.8707 6.45391Z" fill="#696974"/>
</g>
<defs>
<clipPath id="clip0_1_1088">
<rect width="22" height="22" fill="white"/>
</clipPath>
</defs>
</svg>
